<?xml version="1.0" encoding="UTF-8"?>
<svg id="Capa_1" data-name="Capa 1" xmlns="http://www.w3.org/2000/svg" viewBox="0 0 1802.19 524.03">
  <defs>
    <style>
      .cls-1 {
        fill: #00b19d;
      }

      .cls-2 {
        fill: #ffb800;
      }

      .cls-3 {
        fill: #fff;
      }

      .cls-4 {
        fill: #f00678;
      }
    </style>
  </defs>
  <g>
    <path class="cls-1" d="M1800.23,112.13c-21.77,4.97-83.25,22.01-140.95,65.8-88.15,66.9-129.31,163.73-122.65,288.13,39.37-73.83,89.03-143.56,150.16-199.07,11.75-10.44,24.05-20.18,36.72-29.31-46.17,41.56-82.3,93.07-112.01,147.23-16.81,30.75-31.61,62.51-44.63,94.97,28.95-9.11,71.02-26.2,111.36-56.67,92.72-70.05,133.74-174.67,122-311.07Z"/>
    <path class="cls-2" d="M1481.59,88.8c-8.17,9.59-30.22,38.03-41.55,77.29-17.31,59.98-3.26,117.66,41.7,171.67-7.09-46.67-8.15-94.95.77-140.67,1.79-8.68,4.07-17.24,6.72-25.64-6.87,34.36-5.83,69.84-1.01,104.36,2.77,19.58,6.79,38.93,11.85,58,10.02-13.88,23.28-35.8,31.25-63.18,18.31-62.95,1.58-124.09-49.73-181.82Z"/>
    <path class="cls-4" d="M1647.14,0c-8.52,4.37-32.28,17.96-51.64,42.28-29.57,37.14-36.43,81.76-20.5,132.78,8.56-34.86,21.82-69.11,41.36-98.66,3.78-5.58,7.87-10.94,12.17-16.07-14.8,22.16-24.37,47.41-30.99,73.07-3.74,14.56-6.53,29.33-8.5,44.21,11.07-6.85,26.76-18.41,40.3-35.35,31.14-38.94,37.12-86.78,17.8-142.25Z"/>
  </g>
  <g>
    <path class="cls-3" d="M1061.43,438.43c0,12.46.54,24.65,2.16,31.96h-37.11l-2.44-13.27h-.82c-8.67,10.56-22.21,16.25-37.92,16.25-26.81,0-42.79-19.5-42.79-40.62,0-34.4,30.88-50.65,77.73-50.65v-1.63c0-7.31-3.79-17.33-24.11-17.33-13.55,0-27.9,4.61-36.56,10.02l-7.58-26.54c9.21-5.15,27.36-11.92,51.46-11.92,44.15,0,57.96,26,57.96,57.42v46.31ZM1021.61,407.83c-21.67,0-38.46,5.15-38.46,20.85,0,10.56,7.04,15.7,16.26,15.7,10.02,0,18.69-6.77,21.4-15.16.54-2.17.81-4.61.81-7.05v-14.35Z"/>
    <path class="cls-3" d="M1080.65,278.09h41.17v75.57h.54c7.86-11.38,21.67-18.69,40.09-18.69,31.69,0,54.71,26.27,54.44,66.9,0,47.67-30.06,71.5-60.4,71.5-15.44,0-30.61-5.69-39.81-21.4h-.55l-1.63,18.42h-34.94c.55-8.66,1.09-24.65,1.09-39.54v-152.76ZM1121.82,414.06c0,2.71.27,5.14.82,7.31,2.71,10.84,12.18,19.5,24.1,19.5,17.61,0,28.44-13.54,28.44-37.38,0-20.58-9.21-36.83-28.44-36.83-11.11,0-21.4,8.39-24.1,20.31-.55,2.44-.82,4.88-.82,7.58v19.5Z"/>
    <rect class="cls-3" x="1229.07" y="278.1" width="41.17" height="192.3"/>
    <path class="cls-3" d="M1321.7,417.19c1.08,17.06,18.14,25.19,37.38,25.19,14.08,0,25.46-1.9,36.56-5.69l5.41,27.9c-13.54,5.69-30.06,8.39-47.94,8.39-44.97,0-70.69-26-70.69-67.44,0-33.58,20.85-70.69,66.9-70.69,42.8,0,59.05,33.32,59.05,66.09,0,7.05-.81,13.27-1.36,16.25h-85.32ZM1370.19,389.02c0-10.02-4.34-26.81-23.3-26.81-17.33,0-24.38,15.98-25.46,26.81h48.76Z"/>
    <path class="cls-3" d="M0,290.28c13.27-2.17,32.78-3.79,54.99-3.79,27.08,0,46.04,4.06,59.04,14.36,11.11,8.66,17.06,21.67,17.06,38.46,0,23.03-16.52,39-32.23,44.69v.81c12.73,5.14,19.77,17.07,24.38,33.86,5.69,20.85,11.11,44.69,14.63,51.73h-42.25c-2.71-5.42-7.31-20.04-12.46-42.52-5.15-23.02-13-28.98-30.07-29.25h-12.18v71.77H0v-180.11ZM40.9,368.83h16.25c20.58,0,32.77-10.29,32.77-26.27s-11.38-25.19-30.34-25.19c-10.02,0-15.71.54-18.69,1.36v50.1Z"/>
    <path class="cls-3" d="M177.4,417.31c1.08,17.06,18.15,25.19,37.38,25.19,14.08,0,25.46-1.9,36.56-5.69l5.42,27.9c-13.54,5.69-30.06,8.39-47.94,8.39-44.96,0-70.69-26-70.69-67.44,0-33.58,20.85-70.69,66.9-70.69,42.79,0,59.04,33.32,59.04,66.09,0,7.05-.81,13.27-1.35,16.25h-85.32ZM225.88,389.14c0-10.02-4.33-26.81-23.29-26.81-17.34,0-24.38,15.98-25.46,26.81h48.75Z"/>
    <path class="cls-3" d="M274.9,434.65c7.58,4.6,23.29,9.74,35.48,9.74s17.61-4.05,17.61-10.83-4.06-10.29-19.23-15.43c-27.62-9.21-38.19-24.11-37.92-39.82,0-24.92,21.13-43.6,53.9-43.6,15.44,0,28.98,3.79,37.11,7.85l-7.04,28.44c-5.96-3.25-17.6-7.58-28.71-7.58-10.02,0-15.71,4.06-15.71,10.56s5.15,9.75,21.4,15.44c25.19,8.67,35.48,21.67,35.75,40.9,0,24.91-19.23,43.06-57.15,43.06-17.33,0-32.77-4.06-42.79-9.48l7.31-29.25Z"/>
    <path class="cls-3" d="M659.23,402.69c0,48.48-34.4,70.69-69.88,70.69-38.74,0-68.53-25.46-68.53-68.25s28.17-70.42,70.96-70.42c40.36,0,67.44,27.89,67.44,67.98M563.35,404.04c0,22.75,9.48,39.81,27.09,39.81,16.25,0,26.27-15.98,26.27-40.09,0-19.5-7.58-39.54-26.27-39.54s-27.09,20.31-27.09,39.82"/>
    <path class="cls-3" d="M671.14,380.2c0-16.52-.54-30.34-1.09-42.26h35.75l1.9,18.42h.82c5.42-8.67,18.69-21.4,40.9-21.4,27.09,0,47.39,18.14,47.39,57.15v78.27h-41.17v-73.39c0-17.07-5.96-28.71-20.86-28.71-11.38,0-18.15,7.85-21.13,15.43-1.08,2.71-1.35,6.51-1.35,10.29v76.38h-41.17v-90.19Z"/>
    <path class="cls-3" d="M819.02,427.87c10.83,5.69,28.16,11.38,45.77,11.38,18.96,0,28.98-7.86,28.98-19.77s-8.67-17.88-30.61-25.46c-30.33-10.83-50.38-27.63-50.38-54.17,0-31.15,26.27-54.71,69.06-54.71,20.86,0,35.75,4.06,46.59,9.21l-9.21,33.04c-7.04-3.52-20.31-8.67-37.92-8.67s-26.55,8.4-26.55,17.61c0,11.64,10.02,16.79,33.86,25.73,32.23,11.92,47.13,28.71,47.13,54.44,0,30.6-23.29,56.6-73.4,56.6-20.85,0-41.44-5.69-51.73-11.37l8.4-33.86Z"/>
    <path class="cls-3" d="M379.18,382.37c0-17.34-.54-31.96-1.08-44.42h35.75l1.89,18.42h.54c9.75-13.82,24.92-21.39,44.15-21.39,28.98,0,54.98,25.18,54.98,67.44,0,48.21-30.61,70.96-60.13,70.96-15.98,0-28.44-6.5-34.4-15.17h-.54v65.83h-41.17v-141.66ZM420.35,413.52c0,3.25.27,5.96.81,8.67,2.71,11.11,12.19,19.5,24.11,19.5,17.87,0,28.44-14.9,28.44-37.38,0-21.12-9.48-37.11-27.9-37.11-11.65,0-21.94,8.67-24.65,20.86-.54,2.17-.81,4.87-.81,7.31v18.14Z"/>
  </g>
</svg>